<svg xmlns="http://www.w3.org/2000/svg" viewBox="0 0 1440 320">
<path d="M0 65L30 68.7C60 72.3 120 79.7 180 79.2C240 78.7 300 70.3 360 64.7C420 59 480 56 540 56.5C600 57 660 61 720 64.3C780 67.7 840 70.3 870 71.7L900 73L900 0L870 0C840 0 780 0 720 0C660 0 600 0 540 0C480 0 420 0 360 0C300 0 240 0 180 0C120 0 60 0 30 0L0 0Z" fill="#000" fill-opacity="0" stroke-linecap="round" stroke-linejoin="miter"></path>


<path d="M0 52L21.5 65.2C43 78.3 86 104.7 128.8 104.2C171.7 103.7 214.3 76.3 257.2 74.7C300 73 343 97 385.8 102.2C428.7 107.3 471.3 93.7 514.2 86.5C557 79.3 600 78.7 642.8 81.7C685.7 84.7 728.3 91.3 771.2 98.3C814 105.3 857 112.7 878.5 116.3L900 120L900 0L878.5 0C857 0 814 0 771.2 0C728.3 0 685.7 0 642.8 0C600 0 557 0 514.2 0C471.3 0 428.7 0 385.8 0C343 0 300 0 257.2 0C214.3 0 171.7 0 128.8 0C86 0 43 0 21.5 0L0 0Z" fill="#000" fill-opacity="0" stroke-linecap="round" stroke-linejoin="miter"></path>

<path d="M0 55L30 57.8C60 60.7 120 66.3 180 65C240 63.7 300 55.3 360 55.3C420 55.3 480 63.7 540 69.8C600 76 660 80 720 75C780 70 840 56 870 49L900 42L900 0L870 0C840 0 780 0 720 0C660 0 600 0 540 0C480 0 420 0 360 0C300 0 240 0 180 0C120 0 60 0 30 0L0 0Z" fill="#000" fill-opacity="0" stroke-linecap="round" stroke-linejoin="miter"></path>

<path d="M0 115L75 106.7C150 98.3 300 81.7 450 72.3C600 63 750 61 825 60L900 59L900 0L825 0C750 0 600 0 450 0C300 0 150 0 75 0L0 0Z" fill="#080808" fill-opacity="1" stroke-linecap="round" stroke-linejoin="miter"></path>



</svg>