<svg xmlns="http://www.w3.org/2000/svg" viewBox="0 0 1440 320">
<path fill="#8739ff" fill-opacity="0.1" d="M0,192L48,165.3C96,139,192,85,288,74.7C384,64,480,96,576,106.7C672,117,768,107,864,122.7C960,139,1056,181,1152,170.7C1248,160,1344,96,1392,64L1440,32L1440,0L1392,0C1344,0,1248,0,1152,0C1056,0,960,0,864,0C768,0,672,0,576,0C480,0,384,0,288,0C192,0,96,0,48,0L0,0Z"></path>
<path fill="#8739ff" fill-opacity="0.1" d="M0,256L48,240C96,224,192,192,288,165.3C384,139,480,117,576,128C672,139,768,181,864,202.7C960,224,1056,224,1152,197.3C1248,171,1344,117,1392,90.7L1440,64L1440,0L1392,0C1344,0,1248,0,1152,0C1056,0,960,0,864,0C768,0,672,0,576,0C480,0,384,0,288,0C192,0,96,0,48,0L0,0Z"></path>
<path fill="#8739ff" fill-opacity="0" d="M0,288L48,282.7C96,277,192,267,288,234.7C384,203,480,149,576,106.7C672,64,768,32,864,26.7C960,21,1056,43,1152,48C1248,53,1344,43,1392,37.3L1440,32L1440,0L1392,0C1344,0,1248,0,1152,0C1056,0,960,0,864,0C768,0,672,0,576,0C480,0,384,0,288,0C192,0,96,0,48,0L0,0Z"></path>
<path fill="#8739ff" fill-opacity="1" d="M0,32L48,32C96,32,192,32,288,58.7C384,85,480,139,576,138.7C672,139,768,85,864,64C960,43,1056,53,1152,58.7C1248,64,1344,64,1392,64L1440,64L1440,0L1392,0C1344,0,1248,0,1152,0C1056,0,960,0,864,0C768,0,672,0,576,0C480,0,384,0,288,0C192,0,96,0,48,0L0,0Z"></path>
<path fill="#8739ff" fill-opacity="0.1" d="M0,0L48,37.3C96,75,192,149,288,154.7C384,160,480,96,576,64C672,32,768,32,864,69.3C960,107,1056,181,1152,192C1248,203,1344,149,1392,122.7L1440,96L1440,0L1392,0C1344,0,1248,0,1152,0C1056,0,960,0,864,0C768,0,672,0,576,0C480,0,384,0,288,0C192,0,96,0,48,0L0,0Z"></path>


</svg>