<svg xmlns="http://www.w3.org/2000/svg" viewBox="0 0 1440 320">
<path fill="#000" fill-opacity="0.1" d="M0,192L48,165.3C96,139,192,85,288,74.7C384,64,480,96,576,106.7C672,117,768,107,864,122.7C960,139,1056,181,1152,170.7C1248,160,1344,96,1392,64L1440,32L1440,0L1392,0C1344,0,1248,0,1152,0C1056,0,960,0,864,0C768,0,672,0,576,0C480,0,384,0,288,0C192,0,96,0,48,0L0,0Z"></path>
<path fill="#000" fill-opacity="0.1" d="M0,256L48,240C96,224,192,192,288,165.3C384,139,480,117,576,128C672,139,768,181,864,202.7C960,224,1056,224,1152,197.3C1248,171,1344,117,1392,90.7L1440,64L1440,0L1392,0C1344,0,1248,0,1152,0C1056,0,960,0,864,0C768,0,672,0,576,0C480,0,384,0,288,0C192,0,96,0,48,0L0,0Z"></path>
<path fill="#000" fill-opacity="0" d="M0,288L48,282.7C96,277,192,267,288,234.7C384,203,480,149,576,106.7C672,64,768,32,864,26.7C960,21,1056,43,1152,48C1248,53,1344,43,1392,37.3L1440,32L1440,0L1392,0C1344,0,1248,0,1152,0C1056,0,960,0,864,0C768,0,672,0,576,0C480,0,384,0,288,0C192,0,96,0,48,0L0,0Z"></path>
<path fill="#000" fill-opacity="0.1" d="M0,32L48,32C96,32,192,32,288,58.7C384,85,480,139,576,138.7C672,139,768,85,864,64C960,43,1056,53,1152,58.7C1248,64,1344,64,1392,64L1440,64L1440,0L1392,0C1344,0,1248,0,1152,0C1056,0,960,0,864,0C768,0,672,0,576,0C480,0,384,0,288,0C192,0,96,0,48,0L0,0Z"></path>
<path fill="#000" fill-opacity="0.1" d="M0,0L48,37.3C96,75,192,149,288,154.7C384,160,480,96,576,64C672,32,768,32,864,69.3C960,107,1056,181,1152,192C1248,203,1344,149,1392,122.7L1440,96L1440,0L1392,0C1344,0,1248,0,1152,0C1056,0,960,0,864,0C768,0,672,0,576,0C480,0,384,0,288,0C192,0,96,0,48,0L0,0Z"></path>

<!--
<path fill="#8A3FFC" fill-opacity="0" d="M61.3,-25.6C66.3,-4.3,48.3,18.7,27.4,32.7C6.5,46.8,-17.4,51.8,-33.5,41.2C-49.5,30.7,-57.8,4.6,-51,-19.2C-44.1,-43,-22,-64.5,3,-65.5C28.1,-66.5,56.2,-46.9,61.3,-25.6Z" transform="translate(110 110)" />

<path fill="#8A3FFC" fill-opacity="0.7" d="M79.6 -132.7C105.1 -91 129.1 -70.4 121.9 -49.7C114.8 -29 76.4 -8.3 55.2 5.9C34 20.1 29.9 27.9 23.6 45.8C17.2 63.7 8.6 91.9 -15.7 113.4C-40 135 -79.9 150 -85.9 132C-91.8 113.9 -63.8 62.7 -89.3 20.5C-114.8 -21.8 -193.9 -55.3 -213.1 -91.8C-232.3 -128.4 -191.7 -168.2 -146.2 -203.4C-100.7 -238.6 -50.4 -269.3 -11.7 -253.3C27 -237.2 54.1 -174.4 79.6 -132.7" transform="translate(500 150)"></path>
-->

 
    <defs>
      <filter id="grain" x="-50vw" y="-50vh" width="100vw" height="100vh">
    <feFlood flood-color="#ffffff" result="neutral-gray" />
  
    <feTurbulence
      in="neutral-gray"
      type="fractalNoise"
      baseFrequency="2.5"
      numOctaves="100"
      stitchTiles="stitch"
      result="noise"
    />
  
    <feColorMatrix
      in="noise"
      type="saturate"
      values="0"
      result="destaturatedNoise"
    ></feColorMatrix>
  
    <feComponentTransfer in="desaturatedNoise" result="theNoise">
      <feFuncA type="table" tableValues="0 0 0.25 0"></feFuncA>
    </feComponentTransfer>
  
    <feBlend
      in="SourceGraphic"
      in2="theNoise"
      mode="soft-light"
      result="noisy-image"
    />
  </filter>
      
    <linearGradient id="linearGradientId" gradientTransform="rotate(45 0.5 0.5)">
        <stop offset="0%"  stop-color="#fff" />
        <stop offset="100%"  stop-color="#000" />
    </linearGradient>

      
      <clipPath id="shape">
        <path fill="url(#linearGradientId)" fill-opacity="0.1" d="M0,192L48,165.3C96,139,192,85,288,74.7C384,64,480,96,576,106.7C672,117,768,107,864,122.7C960,139,1056,181,1152,170.7C1248,160,1344,96,1392,64L1440,32L1440,0L1392,0C1344,0,1248,0,1152,0C1056,0,960,0,864,0C768,0,672,0,576,0C480,0,384,0,288,0C192,0,96,0,48,0L0,0Z"></path>
        <path fill="url(#linearGradientId)" fill-opacity="0.1" d="M0,256L48,240C96,224,192,192,288,165.3C384,139,480,117,576,128C672,139,768,181,864,202.7C960,224,1056,224,1152,197.3C1248,171,1344,117,1392,90.7L1440,64L1440,0L1392,0C1344,0,1248,0,1152,0C1056,0,960,0,864,0C768,0,672,0,576,0C480,0,384,0,288,0C192,0,96,0,48,0L0,0Z"></path>
        <path fill="url(#linearGradientId)" fill-opacity="0" d="M0,288L48,282.7C96,277,192,267,288,234.7C384,203,480,149,576,106.7C672,64,768,32,864,26.7C960,21,1056,43,1152,48C1248,53,1344,43,1392,37.3L1440,32L1440,0L1392,0C1344,0,1248,0,1152,0C1056,0,960,0,864,0C768,0,672,0,576,0C480,0,384,0,288,0C192,0,96,0,48,0L0,0Z"></path>
        <path fill="url(#linearGradientId)" fill-opacity="0.1" d="M0,32L48,32C96,32,192,32,288,58.7C384,85,480,139,576,138.7C672,139,768,85,864,64C960,43,1056,53,1152,58.7C1248,64,1344,64,1392,64L1440,64L1440,0L1392,0C1344,0,1248,0,1152,0C1056,0,960,0,864,0C768,0,672,0,576,0C480,0,384,0,288,0C192,0,96,0,48,0L0,0Z"></path>
        <path fill="url(#linearGradientId)" fill-opacity="0.1" d="M0,0L48,37.3C96,75,192,149,288,154.7C384,160,480,96,576,64C672,32,768,32,864,69.3C960,107,1056,181,1152,192C1248,203,1344,149,1392,122.7L1440,96L1440,0L1392,0C1344,0,1248,0,1152,0C1056,0,960,0,864,0C768,0,672,0,576,0C480,0,384,0,288,0C192,0,96,0,48,0L0,0Z"></path>
      </clipPath>
    </defs>
  
    

    <g filter="url(#grain)" clip-path="url(#shape)">
        <path fill="url(#linearGradientId)" fill-opacity="0.1" d="M0,192L48,165.3C96,139,192,85,288,74.7C384,64,480,96,576,106.7C672,117,768,107,864,122.7C960,139,1056,181,1152,170.7C1248,160,1344,96,1392,64L1440,32L1440,0L1392,0C1344,0,1248,0,1152,0C1056,0,960,0,864,0C768,0,672,0,576,0C480,0,384,0,288,0C192,0,96,0,48,0L0,0Z"></path>
        <path fill="url(#linearGradientId)" fill-opacity="0.1" d="M0,256L48,240C96,224,192,192,288,165.3C384,139,480,117,576,128C672,139,768,181,864,202.7C960,224,1056,224,1152,197.3C1248,171,1344,117,1392,90.7L1440,64L1440,0L1392,0C1344,0,1248,0,1152,0C1056,0,960,0,864,0C768,0,672,0,576,0C480,0,384,0,288,0C192,0,96,0,48,0L0,0Z"></path>
        <path fill="url(#linearGradientId)" fill-opacity="0.1" d="M0,288L48,282.7C96,277,192,267,288,234.7C384,203,480,149,576,106.7C672,64,768,32,864,26.7C960,21,1056,43,1152,48C1248,53,1344,43,1392,37.3L1440,32L1440,0L1392,0C1344,0,1248,0,1152,0C1056,0,960,0,864,0C768,0,672,0,576,0C480,0,384,0,288,0C192,0,96,0,48,0L0,0Z"></path>
        <path fill="url(#linearGradientId)" fill-opacity="0.5" d="M0,32L48,32C96,32,192,32,288,58.7C384,85,480,139,576,138.7C672,139,768,85,864,64C960,43,1056,53,1152,58.7C1248,64,1344,64,1392,64L1440,64L1440,0L1392,0C1344,0,1248,0,1152,0C1056,0,960,0,864,0C768,0,672,0,576,0C480,0,384,0,288,0C192,0,96,0,48,0L0,0Z"></path>
        <path fill="url(#linearGradientId)" fill-opacity="0.1" d="M0,0L48,37.3C96,75,192,149,288,154.7C384,160,480,96,576,64C672,32,768,32,864,69.3C960,107,1056,181,1152,192C1248,203,1344,149,1392,122.7L1440,96L1440,0L1392,0C1344,0,1248,0,1152,0C1056,0,960,0,864,0C768,0,672,0,576,0C480,0,384,0,288,0C192,0,96,0,48,0L0,0Z"></path>

        
    </g>

    


</svg>